<svg xmlns="http://www.w3.org/2000/svg" viewBox="0 0 48 48"><title>25-award</title><g id="_25-award" data-name="25-award"><path d="M28.96,3.88C25.33,2.59,24,1,24,1S20.24,5.5,8,5.5V17.31a17.83,17.83,0,0,0,8.6,15.11l4.56,2.82.02-.04,1.87-2.69-4.48-2.9A14.408,14.408,0,0,1,12,17.52V8.41a22.805,22.805,0,0,0,8.79-1.48A8.3,8.3,0,0,0,24,4.88a8.3,8.3,0,0,0,3.21,2.05A22.805,22.805,0,0,0,36,8.41v9.42a14.4,14.4,0,0,1-7.1,12.41l-3.93,2.31,1.85,2.65.09.16,3.81-2.14A17.863,17.863,0,0,0,40,17.7V5.5A33.139,33.139,0,0,1,28.96,3.88Z" style="fill:#a672f1"/><path d="M24.97,32.55l-.97.57-.95-.61-4.48-2.9A14.408,14.408,0,0,1,12,17.52V8.41a22.805,22.805,0,0,0,8.79-1.48L24,10l3.21-3.07A22.805,22.805,0,0,0,36,8.41v9.42a14.4,14.4,0,0,1-7.1,12.41Z" style="fill:#ffdf64"/><path d="M24,1S20.24,5.5,8,5.5V17.31a17.83,17.83,0,0,0,8.6,15.11l4.56,2.82L24,37l2.91-1.64,3.81-2.14A17.863,17.863,0,0,0,40,17.7V5.5A33.139,33.139,0,0,1,28.96,3.88C25.33,2.59,24,1,24,1ZM39,17.7a16.922,16.922,0,0,1-8.77,14.648l-3.81,2.14h0l-2.395,1.35-6.9-4.27A16.764,16.764,0,0,1,9,17.31V6.49c9.03-.183,13.387-2.822,15-4.131a15.588,15.588,0,0,0,4.626,2.464A33.338,33.338,0,0,0,39,6.49Z" style="fill:#b785ff"/><path d="M36,7.41a22.351,22.351,0,0,1-8.411-1.405,7.739,7.739,0,0,1-2.808-1.749,1,1,0,0,0-.773-.371,1.049,1.049,0,0,0-.782.362,7.707,7.707,0,0,1-2.821,1.76A22.339,22.339,0,0,1,12,7.41a1,1,0,0,0-1,1v9.11a15.35,15.35,0,0,0,7.026,12.93l5.433,3.512a1,1,0,0,0,1.048.02l4.9-2.88A15.461,15.461,0,0,0,37,17.83V8.41A1,1,0,0,0,36,7.41Zm0,10.42a14.4,14.4,0,0,1-7.1,12.41l-3.93,2.31-.97.57-.95-.61-4.48-2.9A14.408,14.408,0,0,1,12,17.52V8.41a22.805,22.805,0,0,0,8.79-1.48A8.3,8.3,0,0,0,24,4.88a8.3,8.3,0,0,0,3.21,2.05A22.805,22.805,0,0,0,36,8.41Z" style="fill:#8163ff"/><polygon points="26.82 35.2 26.91 35.36 24 37 21.16 35.24 21.18 35.2 23.05 32.51 24 33.12 24.97 32.55 26.82 35.2" style="fill:#fb9881"/><polygon points="26.425 34.634 24 36 21.64 34.538 21.18 35.2 21.16 35.24 24 37 26.91 35.36 26.82 35.2 26.425 34.634" style="fill:#ffce54"/><path d="M36,8.41a22.805,22.805,0,0,1-8.79-1.48L24,10,20.79,6.93a21,21,0,0,1-6.773,1.413A18.971,18.971,0,0,0,32.7,26.985,14.389,14.389,0,0,0,36,17.83Z" style="fill:#fff978"/><path d="M24,4.88a8.3,8.3,0,0,1-3.21,2.05A22.805,22.805,0,0,1,12,8.41v9.11a14.408,14.408,0,0,0,6.57,12.09l4.48,2.9.95.61.97-.57,3.93-2.31A14.4,14.4,0,0,0,36,17.83V8.41a22.805,22.805,0,0,1-8.79-1.48A8.3,8.3,0,0,1,24,4.88ZM35,17.83a13.455,13.455,0,0,1-6.607,11.548l-3.93,2.31-.44.258-4.909-3.175A13.358,13.358,0,0,1,13,17.52V9.4a22.926,22.926,0,0,0,8.169-1.542A11.487,11.487,0,0,0,24,6.246a11.487,11.487,0,0,0,2.825,1.607A22.982,22.982,0,0,0,35,9.4Z" style="fill:#ffb844"/><path d="M27.21,6.93,24,10,20.79,6.93A8.3,8.3,0,0,0,24,4.88,8.3,8.3,0,0,0,27.21,6.93Z" style="fill:#fb9881"/><path d="M24,8,22.179,6.258a12.277,12.277,0,0,1-1.389.672L24,10l3.21-3.07a12.277,12.277,0,0,1-1.389-.672Z" style="fill:#ffdf64"/><ellipse cx="31.682" cy="11.708" rx="0.825" ry="1.148" transform="translate(1.005 25.842) rotate(-45.02)" style="fill:#fff"/><ellipse cx="31.684" cy="15.695" rx="1.642" ry="2.286" transform="translate(-1.814 27.012) rotate(-45.02)" style="fill:#fff"/><path d="M14,30l-.24.31L11,34l-.05.07A23.263,23.263,0,0,1,7.24,31L3.58,34.72,1,33l3-3V24l8.46,5.08Z" style="fill:#ffb844"/><path d="M47,33l-2.58,1.72L40.76,31a23.263,23.263,0,0,1-3.71,3.07L37,34l-2.58-3.44L34,30l2-1.2L44,24v6Z" style="fill:#ffb844"/><path d="M3.58,34.72,7.24,31a23.5,23.5,0,0,0,29.81,3.07A23.263,23.263,0,0,0,40.76,31l3.66,3.72L47,37.33a32.193,32.193,0,0,1-46,0Z" style="fill:#ffce54"/><path d="M44.4,34.7a32.167,32.167,0,0,1-40.8,0l-.021.021L1,37.33a32.193,32.193,0,0,0,46,0l-2.58-2.61Z" style="fill:#ffb844"/><path d="M44.42,34.72,47,33l-3-3-2.7,1.545Z" style="fill:#fea740"/><path d="M1,33l2.58,1.72L6.7,31.545,4,30Z" style="fill:#fea740"/><path d="M24,37l2.91-1.64,3.81-2.14A18.9,18.9,0,0,0,34,30.88l.42-.32L37,34l.05.07a23.409,23.409,0,0,1-26.1,0L11,34l2.76-3.69.24.18a19.25,19.25,0,0,0,2.6,1.93l4.56,2.82Z" style="fill:#fff"/><path d="M10.7,24.554A16.434,16.434,0,0,1,9,17.308V6.49c9.028-.183,13.386-2.822,15-4.131C25.35,3.45,28.61,5.471,34.882,6.214l.235-1.986c-7.7-.913-10.33-3.847-10.35-3.87a1.033,1.033,0,0,0-1.534,0C23.2.4,19.634,4.5,8,4.5a1,1,0,0,0-1,1V17.308A18.449,18.449,0,0,0,8.908,25.44Z"/><path d="M39,17.7a16.325,16.325,0,0,1-.3,3.1l1.963.382A18.279,18.279,0,0,0,41,17.7V5.5a1,1,0,0,0-1-1c-1,0-1.988-.031-2.935-.094l-.13,2c.672.044,1.363.074,2.065.088Z"/><path d="M37.478,24.578l1.814.842a18.576,18.576,0,0,0,.827-2.113l-1.9-.614A16.513,16.513,0,0,1,37.478,24.578Z"/><path d="M47.712,36.629l-1.725-1.752,1.568-1.045a1,1,0,0,0,.152-1.539L45,29.586V24a1,1,0,0,0-1.515-.857l-10,6A1,1,0,0,0,33.2,30.6L35.6,33.792a22.222,22.222,0,0,1-9.451,3.149l5.066-2.849a20.335,20.335,0,0,0,2-1.284l-1.181-1.616a18.154,18.154,0,0,1-1.795,1.157l-3,1.686-.817-1.172L29.409,31.1A15.466,15.466,0,0,0,37,17.825V8.407a1,1,0,0,0-1-1c-8.47,0-11.2-3.133-11.219-3.155a1.007,1.007,0,0,0-.773-.37.938.938,0,0,0-.781.361C23.2,4.274,20.47,7.407,12,7.407a1,1,0,0,0-1,1V11h2V9.394a23.86,23.86,0,0,0,7.553-1.306l2.756,2.635a1,1,0,0,0,1.382,0l2.756-2.635A23.86,23.86,0,0,0,35,9.394v8.431a13.454,13.454,0,0,1-6.6,11.551l-4.37,2.572-4.907-3.177A13.347,13.347,0,0,1,13,17.523V13H11v4.523a15.34,15.34,0,0,0,7.031,12.928l3.608,2.336-.767,1.1-3.748-2.319q-.287-.177-.564-.363l-1.118,1.658c.207.14.416.275.629.407l5.945,3.678a22.228,22.228,0,0,1-9.611-3.157L14.8,30.6a1,1,0,0,0-.285-1.457l-10-6A1,1,0,0,0,3,24v5.586L.293,32.293a1,1,0,0,0,.152,1.539l1.568,1.045L.288,36.629a1,1,0,0,0,0,1.4,33.19,33.19,0,0,0,47.424,0A1,1,0,0,0,47.712,36.629ZM24,8.616,22.523,7.2A10.347,10.347,0,0,0,24,6.237a10.347,10.347,0,0,0,1.477.967ZM35.465,30.287,43,25.767V30a1,1,0,0,0,.293.707l2.137,2.138-.873.582L41.474,30.3a1.031,1.031,0,0,0-1.425,0A23.036,23.036,0,0,1,37.26,32.68ZM23.32,33.874l.137.089a1,1,0,0,0,1.05.022l.178-.1.794,1.14-1.455.818-1.449-.9ZM2.57,32.845l2.137-2.138A1,1,0,0,0,5,30V25.767l7.535,4.52L10.74,32.68A23.036,23.036,0,0,1,7.951,30.3a1,1,0,0,0-1.425,0L3.443,33.427ZM24,46A31.05,31.05,0,0,1,2.415,37.32l4.837-4.91a24.45,24.45,0,0,0,33.5,0l4.837,4.91A31.05,31.05,0,0,1,24,46Z"/></g></svg>